PathFileType  4	(X/Y/Z) C:\Users\antoi\Documents\MyRepositories\mobilecap\ResultsAnalysis
DataRate	CameraRate	NumFrames	NumMarkers	Units	OrigDataRate	OrigDataStartFrame	OrigNumFrames
100.0	100.0	5	55	mm	100.0	67	265
Frame#	Time	r_knee			r_shank_antsup			r_ankle			r_calc			r_5meta			r_toe			L_knee			L_shank_antsup			L_ankle			L_calc			L_5meta			L_toe			r_mknee			r_mankle			L_mknee			L_mankle			r_sh2			r_sh3			r_sh4			L_sh2			L_sh3			r_thigh1			r_thigh2			r_thigh3			r_thigh4			r_thigh5			L_thigh1			L_thigh2			L_thigh3			L_thigh4			r.ASIS			r.PSIS			L.ASIS			L.PSIS			C7			R_Shoulder			L_Shoulder			R_Sternum			L_Sternum			R_humerus			R_elbow_med			R_elbow_lat			R_forearm			R_wrist_radius			R_wrist_ulna			L_humerus			L_elbow_med			L_elbow_lat			L_forearm			L_wrist_radius			L_wrist_ulna			R_HJC			L_HJC			R_HJC_reg			L_HJC_reg			
		X1	Y1	Z1	X2	Y2	Z2	X3	Y3	Z3	X4	Y4	Z4	X5	Y5	Z5	X6	Y6	Z6	X7	Y7	Z7	X8	Y8	Z8	X9	Y9	Z9	X10	Y10	Z10	X11	Y11	Z11	X12	Y12	Z12	X13	Y13	Z13	X14	Y14	Z14	X15	Y15	Z15	X16	Y16	Z16	X17	Y17	Z17	X18	Y18	Z18	X19	Y19	Z19	X20	Y20	Z20	X21	Y21	Z21	X22	Y22	Z22	X23	Y23	Z23	X24	Y24	Z24	X25	Y25	Z25	X26	Y26	Z26	X27	Y27	Z27	X28	Y28	Z28	X29	Y29	Z29	X30	Y30	Z30	X31	Y31	Z31	X32	Y32	Z32	X33	Y33	Z33	X34	Y34	Z34	X35	Y35	Z35	X36	Y36	Z36	X37	Y37	Z37	X38	Y38	Z38	X39	Y39	Z39	X40	Y40	Z40	X41	Y41	Z41	X42	Y42	Z42	X43	Y43	Z43	X44	Y44	Z44	X45	Y45	Z45	X46	Y46	Z46	X47	Y47	Z47	X48	Y48	Z48	X49	Y49	Z49	X50	Y50	Z50	X51	Y51	Z51	X52	Y52	Z52	X53	Y53	Z53	X54	Y54	Z54	X55	Y55	Z55	

67	0.66000000	-206.90764	501.68936	-391.75593	-174.22026	433.92952	-402.60358	-250.78950	98.71169	-366.09501	-320.99842	63.94288	-394.24186	-144.61491	45.84922	-335.65701	-102.25124	70.05605	-396.06773	-216.01222	497.54628	-731.67241	-193.22300	410.35422	-741.45128	-254.89160	101.16126	-740.60337	-320.61361	62.51309	-698.87148	-151.09793	42.86792	-788.14231	-110.24888	62.95934	-732.41299	-210.09756	487.32268	-513.63174	-239.81423	104.92609	-444.33485	-212.88778	487.24946	-608.91830	-224.93929	100.36955	-664.63453	-198.51013	326.60511	-365.85081	-249.00713	452.31931	-371.40914	-270.06182	343.44541	-355.26908	-280.19800	422.01738	-745.60937	-283.34038	300.51636	-761.93630	-132.29571	820.95248	-387.21395	-137.55780	709.19815	-389.57419	-194.52230	687.00518	-360.07211	-244.47580	824.42015	-367.67391	-247.45716	707.33034	-369.39502	-163.95446	766.03193	-765.20167	-166.99651	628.17615	-747.77555	-276.95522	767.06995	-735.99142	-272.82344	626.73810	-726.20361	-114.02006	978.96796	-438.66971	-309.93250	1013.84317	-523.86676	-106.33726	958.94457	-691.67116	-313.48231	1009.49497	-620.80518	-328.39805	1419.08177	-583.58894	-229.95026	1390.08419	-402.79071	-256.39883	1390.60360	-763.01332	-189.03104	1401.11284	-562.65107	-185.20051	1404.85141	-603.62159	-209.19027	1248.08937	-349.81794	-266.76594	1042.40685	-403.70644	-243.19690	1052.99274	-337.52990	-161.89694	935.84034	-334.40135	-118.13970	806.42187	-342.08642	-140.55205	797.33021	-316.22933	-227.45437	1271.49248	-815.43213	-266.24538	1041.10543	-742.19848	-237.83826	1055.39003	-813.80829	-165.85181	965.69480	-799.18207	-119.35850	812.17977	-791.18566	-141.40536	805.77396	-814.64011	-192.23688	898.03054	-460.21630	-189.30805	886.50997	-666.34472	-182.13425	899.53698	-468.17921	-188.26052	892.03259	-635.47875	
68	0.67000000	-206.92947	501.69024	-391.74512	-174.25557	433.91191	-402.61641	-250.85497	98.69148	-366.15135	-320.97711	63.91044	-394.23622	-144.59449	45.86621	-335.66244	-102.24064	70.06435	-396.08133	-216.01924	497.53520	-731.66926	-193.19922	410.33736	-741.43991	-254.88946	101.15218	-740.61009	-320.62982	62.48767	-698.86370	-151.10066	42.85901	-788.14727	-110.25273	62.97232	-732.38879	-210.10730	487.32886	-513.64220	-239.81157	104.92488	-444.34095	-212.85841	487.26318	-608.88605	-224.94646	100.42152	-664.62774	-198.55272	326.55671	-365.89012	-249.01842	452.33603	-371.42274	-269.99400	343.41489	-355.23394	-280.19031	422.02095	-745.68232	-283.35149	300.51279	-761.94281	-132.29762	820.98271	-387.21906	-137.63521	709.19079	-389.59462	-194.58472	687.00468	-360.10639	-244.49257	824.44457	-367.68070	-247.51418	707.34602	-369.52526	-163.87380	766.06102	-764.79123	-167.00802	628.15772	-747.77562	-276.97551	767.09273	-735.56051	-272.82766	626.72698	-726.21635	-114.04070	979.00413	-438.70171	-309.95264	1013.80049	-523.95635	-106.34486	958.92855	-691.67751	-313.48568	1009.46910	-620.78605	-328.40711	1419.11115	-583.64397	-229.97744	1390.06445	-402.78648	-256.40149	1390.55921	-763.03572	-189.05626	1401.08212	-562.63590	-185.17840	1404.75381	-603.56122	-209.22973	1248.10763	-349.84171	-266.77028	1042.35656	-403.77073	-243.21801	1052.97383	-337.53405	-161.90899	935.81714	-334.39547	-118.19098	806.37965	-342.09278	-140.59178	797.32677	-316.22709	-227.45612	1271.45878	-815.43617	-266.25585	1041.07411	-742.20819	-237.83969	1055.36190	-813.80988	-165.86430	965.67795	-799.16489	-119.35784	812.14297	-791.18656	-141.41637	805.74700	-814.64809	-192.23642	898.04111	-460.22655	-189.29564	886.48521	-666.35282	-182.12472	899.50685	-468.22336	-188.22846	892.02362	-635.51079	
69	0.68000000	-206.94995	501.69292	-391.73987	-174.27926	433.90602	-402.62491	-250.85525	98.69990	-366.15029	-320.95951	63.87282	-394.22165	-144.58104	45.89576	-335.61922	-102.23941	70.05590	-396.08843	-216.02897	497.53025	-731.66771	-193.20584	410.28831	-741.40366	-254.89095	101.14623	-740.60700	-320.63109	62.47515	-698.86049	-151.10364	42.84523	-788.14899	-110.25169	62.97698	-732.38541	-210.10470	487.32739	-513.63860	-239.81024	104.91634	-444.35227	-212.91534	487.22937	-608.93612	-224.97506	100.45990	-664.59983	-198.58125	326.52630	-365.91825	-249.05755	452.33630	-371.41631	-270.05496	343.30445	-355.21395	-280.16925	422.02466	-745.78889	-283.33597	300.54612	-761.94752	-132.28972	820.98685	-387.21922	-137.69943	709.14433	-389.56683	-194.64970	687.04452	-360.15751	-244.50039	824.47848	-367.70400	-247.51577	707.40199	-369.66212	-163.80256	766.05403	-764.63793	-167.02087	628.13496	-747.77695	-277.01101	767.08847	-735.42818	-272.85271	626.74058	-726.26359	-114.07703	978.99538	-438.71774	-309.95867	1013.76611	-524.03936	-106.35399	958.91157	-691.68210	-313.45532	1009.41693	-620.76780	-328.41674	1419.10962	-583.67658	-230.02420	1390.05413	-402.80470	-256.39129	1390.52247	-763.05800	-189.07248	1401.05988	-562.63900	-185.17490	1404.65212	-603.48367	-209.26145	1248.11813	-349.84640	-266.85718	1042.30967	-403.72707	-243.22053	1052.96765	-337.51342	-161.93763	935.79558	-334.41332	-118.22763	806.36998	-342.10381	-140.62751	797.31870	-316.21439	-227.45172	1271.43245	-815.44360	-266.24608	1041.02393	-742.23670	-237.84169	1055.34378	-813.81600	-165.86908	965.63761	-799.18197	-119.36936	812.10858	-791.19819	-141.43044	805.71980	-814.65482	-192.24419	898.02158	-460.24021	-189.27823	886.45367	-666.36544	-182.16815	899.51494	-468.24564	-188.21518	891.99345	-635.52683	
70	0.69000000	-206.98339	501.68926	-391.73826	-174.30388	433.89318	-402.60417	-250.84087	98.70086	-366.13067	-320.98348	63.82843	-394.20130	-144.58409	45.89767	-335.58570	-102.23423	70.05301	-396.09254	-216.04068	497.52418	-731.66773	-193.24712	410.27548	-741.41552	-254.89060	101.14267	-740.60173	-320.61713	62.48161	-698.86216	-151.10438	42.83879	-788.15054	-110.24717	62.97586	-732.40344	-210.10214	487.33172	-513.63210	-239.81575	104.89112	-444.34621	-212.98027	487.19195	-608.99739	-224.99729	100.45403	-664.58251	-198.57707	326.51798	-365.88096	-249.11292	452.29882	-371.37800	-270.03274	343.13060	-355.15194	-280.17312	422.01785	-745.79698	-283.34634	300.49256	-761.94714	-132.34684	820.96633	-387.25598	-137.69798	709.13690	-389.53380	-194.70957	687.04964	-360.20112	-244.49559	824.45875	-367.72014	-247.50097	707.40658	-369.65147	-163.77510	766.02621	-764.71952	-167.03071	628.11962	-747.77922	-277.03747	767.06126	-735.54298	-272.89652	626.76204	-726.30534	-114.08874	978.96346	-438.69662	-309.97286	1013.76567	-524.05072	-106.36457	958.90504	-691.68242	-313.45319	1009.40945	-620.80182	-328.40416	1419.09256	-583.67707	-230.08474	1390.03902	-402.83708	-256.38448	1390.49829	-763.06351	-189.07881	1401.06423	-562.65415	-185.19111	1404.60080	-603.44907	-209.29293	1248.09861	-349.82740	-266.96173	1042.26466	-403.62186	-243.25877	1052.96846	-337.51193	-161.97923	935.76939	-334.44477	-118.27124	806.34630	-342.11364	-140.64750	797.31407	-316.20441	-227.45081	1271.40759	-815.44415	-266.22939	1040.97390	-742.25938	-237.85505	1055.32033	-813.79940	-165.86134	965.58247	-799.20041	-119.39098	812.07692	-791.21513	-141.44589	805.69132	-814.66003	-192.27182	898.00089	-460.25081	-189.28440	886.44723	-666.37653	-182.20931	899.50867	-468.23708	-188.22722	891.97625	-635.53166	
71	0.70000000	-207.00366	501.68877	-391.73965	-174.32570	433.85695	-402.58781	-250.82334	98.70412	-366.11183	-320.98577	63.83516	-394.18779	-144.60392	45.86647	-335.59936	-102.22394	70.05962	-396.09648	-216.05092	497.51007	-731.66433	-193.27370	410.29349	-741.45410	-254.89137	101.13913	-740.60562	-320.59413	62.50051	-698.86566	-151.10269	42.83992	-788.15156	-110.25186	62.97493	-732.41941	-210.10884	487.33862	-513.63790	-239.82283	104.86602	-444.32724	-212.98237	487.18602	-609.00829	-224.98410	100.41088	-664.58075	-198.55579	326.48300	-365.81077	-249.11438	452.28803	-371.36607	-269.89904	343.15767	-355.11423	-280.18640	422.01150	-745.75583	-283.44260	300.25475	-761.94445	-132.46247	820.94519	-387.32788	-137.69652	709.16297	-389.55500	-194.70758	687.01066	-360.17842	-244.49361	824.42890	-367.71293	-247.50856	707.38126	-369.58599	-163.82515	765.99769	-764.89420	-167.04292	628.11338	-747.78360	-277.01942	767.04389	-735.71951	-272.90408	626.75593	-726.30022	-114.07442	978.95029	-438.66689	-309.99252	1013.78961	-524.02679	-106.37196	958.90744	-691.68426	-313.48530	1009.40936	-620.82402	-328.38070	1419.07985	-583.67058	-230.12069	1390.00861	-402.88564	-256.38180	1390.47609	-763.06472	-189.08657	1401.07392	-562.65993	-185.19979	1404.59527	-603.45420	-209.31720	1248.07585	-349.81537	-266.96863	1042.24176	-403.61753	-243.30561	1052.95096	-337.52531	-162.02228	935.72128	-334.44251	-118.32478	806.28563	-342.09539	-140.68129	797.28212	-316.19608	-227.45382	1271.38209	-815.44552	-266.24273	1040.93418	-742.23599	-237.86743	1055.29495	-813.79422	-165.85908	965.53692	-799.19769	-119.40343	812.04143	-791.21344	-141.46113	805.66420	-814.66651	-192.28716	898.00122	-460.24518	-189.30218	886.45102	-666.37113	-182.22348	899.53829	-468.18921	-188.26067	891.96713	-635.50091	
